<?xml version="1.0" encoding="UTF-8"?>
<svg version="1.1" xmlns="http://www.w3.org/2000/svg" width="157" height="145">
<path d="M0 0 C51.81 0 103.62 0 157 0 C157 47.85 157 95.7 157 145 C105.19 145 53.38 145 0 145 C0 97.15 0 49.3 0 0 Z " fill="#87B9D6" transform="translate(0,0)"/>
<path d="M0 0 C0.66 0 1.32 0 2 0 C2.02312392 10.15266151 2.04091534 20.3053168 2.05181217 30.45799923 C2.05704089 35.17179733 2.06413834 39.88557747 2.07543945 44.59936523 C2.08626873 49.14455404 2.09227692 53.68972552 2.09487724 58.23492622 C2.09673142 59.97294958 2.10035189 61.71097194 2.10573006 63.44898796 C2.11294103 65.87478595 2.11399092 68.30051146 2.11352539 70.72631836 C2.11712067 71.45208069 2.12071594 72.17784302 2.12442017 72.92559814 C2.11405216 77.88594784 2.11405216 77.88594784 1 79 C-0.5285349 79.09798388 -2.06158964 79.12631831 -3.59326172 79.12698364 C-5.08246124 79.13121338 -5.08246124 79.13121338 -6.60174561 79.13552856 C-7.69996643 79.13350433 -8.79818726 79.1314801 -9.9296875 79.12939453 C-11.07914856 79.13114685 -12.22860962 79.13289917 -13.41290283 79.13470459 C-17.233617 79.1391259 -21.05428532 79.13618413 -24.875 79.1328125 C-27.51676441 79.13348546 -30.15852877 79.13445542 -32.80029297 79.13571167 C-38.34538271 79.13753321 -43.89045915 79.13512747 -49.43554688 79.13037109 C-55.85494744 79.1249285 -62.27431625 79.12669117 -68.69371605 79.1321975 C-74.85800983 79.13727426 -81.02228948 79.13674711 -87.18658447 79.13381577 C-89.8149618 79.13314622 -92.44333992 79.13397588 -95.07171631 79.13629532 C-98.73793723 79.13882019 -102.40409622 79.13498357 -106.0703125 79.12939453 C-107.16853333 79.13141876 -108.26675415 79.13344299 -109.39825439 79.13552856 C-110.39105408 79.13270874 -111.38385376 79.12988892 -112.40673828 79.12698364 C-113.27469025 79.12660662 -114.14264221 79.12622959 -115.03689575 79.12584114 C-117 79 -117 79 -118 78 C-118.09494733 75.62699131 -118.12559319 73.28321297 -118.11352539 70.90991211 C-118.11367142 70.16849472 -118.11381744 69.42707733 -118.1139679 68.66319275 C-118.11326865 66.20121379 -118.10547574 63.73930957 -118.09765625 61.27734375 C-118.09579211 59.57483461 -118.09436819 57.87232493 -118.09336853 56.16981506 C-118.08954302 51.68006927 -118.07971247 47.19035562 -118.06866455 42.70062256 C-118.05845113 38.12268509 -118.05387106 33.54474244 -118.04882812 28.96679688 C-118.03809022 19.97785043 -118.02101341 10.98892788 -118 2 C-114.6517557 3.29248754 -112.00834099 4.54773783 -109.20703125 6.80078125 C-108.50336426 7.35942871 -107.79969727 7.91807617 -107.07470703 8.49365234 C-106.32817871 9.09387207 -105.58165039 9.6940918 -104.8125 10.3125 C-96.38058898 16.97947171 -87.79066565 23.37145317 -79.00976562 29.57080078 C-77.1529207 30.89125391 -75.31719879 32.23636574 -73.484375 33.58984375 C-71.94523437 34.69005859 -71.94523437 34.69005859 -70.375 35.8125 C-69.51648438 36.43769531 -68.65796875 37.06289062 -67.7734375 37.70703125 C-64.11309355 39.41347329 -60.92642881 39.68641545 -57 39 C-54.37457778 37.77145597 -52.29493669 36.61207758 -49.9375 35 C-49.26904053 34.56284668 -48.60058105 34.12569336 -47.91186523 33.67529297 C-45.59013108 32.1417519 -43.29375394 30.57507477 -41 29 C-40.10700195 28.38930664 -39.21400391 27.77861328 -38.29394531 27.14941406 C-31.49306479 22.48415458 -24.74163718 17.75029745 -18 13 C-16.26187632 11.77972344 -14.523603 10.55966 -12.78515625 9.33984375 C-11.23150163 8.24777873 -9.67809987 7.15535383 -8.125 6.0625 C-7.41158447 5.56057129 -6.69816895 5.05864258 -5.96313477 4.54150391 C-2.84672771 2.43630146 -2.84672771 2.43630146 0 0 Z " fill="#273036" transform="translate(136,46)"/>
<path d="M0 0 C39.27 0 78.54 0 119 0 C119 10 119 10 117.43383789 12.22998047 C116.33930298 12.91664795 116.33930298 12.91664795 115.22265625 13.6171875 C114.40812988 14.154646 113.59360352 14.69210449 112.75439453 15.24584961 C111.86606934 15.78346924 110.97774414 16.32108887 110.0625 16.875 C108.20650244 18.08121797 106.35104156 19.28826207 104.49609375 20.49609375 C103.56394043 21.08632324 102.63178711 21.67655273 101.67138672 22.28466797 C97.89569009 24.70909171 94.26505895 27.31596523 90.625 29.9375 C83.84618366 34.7358129 77.02674181 39.47581119 70.1875 44.1875 C69.23762207 44.84806396 68.28774414 45.50862793 67.30908203 46.18920898 C66.41688965 46.80094971 65.52469727 47.41269043 64.60546875 48.04296875 C63.81293701 48.58977295 63.02040527 49.13657715 62.20385742 49.69995117 C60.01677098 50.99010685 58.5298801 51.79207331 56 52 C54.10327148 51.05053711 54.10327148 51.05053711 52.12109375 49.52734375 C51.374646 48.96466797 50.62819824 48.40199219 49.85913086 47.82226562 C49.05999268 47.20029297 48.26085449 46.57832031 47.4375 45.9375 C45.71907004 44.63369266 44.00031091 43.33031907 42.28125 42.02734375 C41.40339844 41.35558105 40.52554688 40.68381836 39.62109375 39.99169922 C36.37336313 37.52383536 33.08402847 35.11692762 29.78662109 32.71606445 C27.43292636 30.99665889 25.09439269 29.25819653 22.7578125 27.515625 C19.47795469 25.07245169 16.15658219 22.70256867 12.8046875 20.359375 C11.13996028 19.15716992 9.47587573 17.95407431 7.8125 16.75 C7.02738037 16.22019531 6.24226074 15.69039062 5.43334961 15.14453125 C3.26953125 13.546875 3.26953125 13.546875 0 10 C0 6.7 0 3.4 0 0 Z " fill="#262E34" transform="translate(18,18)"/>
<path d="M0 0 C51.81 0 103.62 0 157 0 C157 47.85 157 95.7 157 145 C105.19 145 53.38 145 0 145 C0 97.15 0 49.3 0 0 Z M5.64493942 8.71879673 C2.39897516 14.25691365 2.42624678 19.88345522 2.46655273 26.15429688 C2.45793716 27.24476822 2.44932159 28.33523956 2.44044495 29.45875549 C2.4178335 33.04566516 2.424515 36.63179056 2.43359375 40.21875 C2.42835639 42.72164135 2.4220795 45.22453072 2.41481018 47.72741699 C2.4044151 52.96597603 2.40862403 58.20433292 2.42358398 63.44287109 C2.44050957 69.48251783 2.42465563 75.521442 2.3923611 81.56100988 C2.36236972 87.3927211 2.36049563 93.22415392 2.3698597 99.05592346 C2.37067853 101.52780599 2.36382815 103.99970364 2.34908867 106.47154236 C2.3316246 109.93012838 2.34620281 113.38717825 2.36889648 116.84570312 C2.35720428 117.86100601 2.34551208 118.8763089 2.33346558 119.92237854 C2.42140119 126.5258074 3.61122376 130.96869532 8 136 C13.34518159 141.18024994 19.22032422 140.56042351 26.24414062 140.50170898 C27.47408249 140.50711197 28.70402435 140.51251495 29.97123718 140.51808167 C33.33310642 140.5284256 36.69398693 140.52089085 40.05576897 140.50437045 C43.58035523 140.49048223 47.10491282 140.49698431 50.6295166 140.50050354 C56.5475285 140.5032027 62.46533723 140.48975558 68.38330078 140.46655273 C75.21689633 140.4399447 82.0501523 140.43819692 88.88378191 140.4499411 C95.46831623 140.46073539 102.05272819 140.45451891 108.63725281 140.44038582 C111.43457445 140.43464028 114.23180612 140.43469736 117.02912903 140.43945122 C120.93816895 140.44512724 124.84687168 140.42586544 128.75585938 140.40405273 C129.91240524 140.40855438 131.06895111 140.41305603 132.26054382 140.41769409 C137.90106708 140.36539243 142.16699405 140.26670845 147 137 C148.67252329 135.39165541 148.67252329 135.39165541 149.8125 133.5625 C150.21082031 132.98628906 150.60914063 132.41007813 151.01953125 131.81640625 C152.85531162 128.41545855 153.12636519 125.16459459 153.14044189 121.34536743 C153.14615204 120.41456863 153.15186218 119.48376984 153.15774536 118.52476501 C153.15886322 117.51064041 153.15998108 116.49651581 153.16113281 115.45166016 C153.16609772 114.37806747 153.17106262 113.30447479 153.17617798 112.198349 C153.19078839 108.64524699 153.1975993 105.09218962 153.203125 101.5390625 C153.20887678 99.07050576 153.21463451 96.60194904 153.22039795 94.13339233 C153.23090434 88.95676465 153.23674958 83.78015248 153.24023438 78.60351562 C153.24572238 71.97003673 153.26975873 65.33676275 153.29820633 58.70334816 C153.31682698 53.60413004 153.32203798 48.50496138 153.32357025 43.40571213 C153.32659791 40.96008558 153.33463021 38.51445993 153.34775543 36.06886673 C153.36480564 32.64812852 153.36293805 29.22789235 153.35644531 25.80712891 C153.37026749 24.29201469 153.37026749 24.29201469 153.3843689 22.74629211 C153.34337757 15.85370846 152.23660855 11.58975727 147.625 6.25 C143.54600521 2.75371875 140.02575879 1.75312229 134.70707703 1.72584534 C133.65999573 1.71587021 132.61291443 1.70589508 131.53410339 1.69561768 C130.39580582 1.694953 129.25750824 1.69428833 128.0847168 1.69360352 C126.87764069 1.68528 125.67056458 1.67695648 124.4269104 1.66838074 C121.12298464 1.64843233 117.81931069 1.63764351 114.51534629 1.63255429 C112.4483435 1.6289047 110.38136472 1.62266152 108.31437111 1.6155529 C101.09506802 1.59107492 93.8758366 1.57801022 86.65649414 1.57446289 C79.94044571 1.57082947 73.22485479 1.54094429 66.50894612 1.49905831 C60.73210684 1.46429978 54.95541877 1.44891349 49.17847568 1.44821686 C45.73296031 1.44742588 42.28791127 1.43877133 38.8425045 1.41021919 C34.99598067 1.37905438 31.15010813 1.38812482 27.3034668 1.40063477 C26.17124191 1.38580048 25.03901703 1.37096619 23.8724823 1.35568237 C16.25971516 1.42609967 10.53928416 2.510673 5.64493942 8.71879673 Z " fill="#262E34" transform="translate(0,0)"/>
</svg>
