<?xml version="1.0" encoding="UTF-8"?>
<svg version="1.1" xmlns="http://www.w3.org/2000/svg" width="30" height="27">
<path d="M0 0 C9.9 0 19.8 0 30 0 C30 8.91 30 17.82 30 27 C20.1 27 10.2 27 0 27 C0 18.09 0 9.18 0 0 Z " fill="#6F97AE" transform="translate(0,0)"/>
<path d="M0 0 C0 4.62 0 9.24 0 14 C-7.26 14 -14.52 14 -22 14 C-22 9.71 -22 5.42 -22 1 C-17 3 -17 3 -15 4.6875 C-13.07647443 6.21146134 -13.07647443 6.21146134 -10.6875 6 C-7.49940752 4.81373303 -5.1387202 3.11949615 -2.453125 1.05859375 C-1 0 -1 0 0 0 Z " fill="#262F35" transform="translate(26,9)"/>
<path d="M0 0 C7.26 0 14.52 0 22 0 C22 0.99 22 1.98 22 3 C19.734375 4.89453125 19.734375 4.89453125 16.75 6.8125 C15.77546875 7.45832031 14.8009375 8.10414062 13.796875 8.76953125 C11 10 11 10 8.875 9.3515625 C8.25625 8.90554688 7.6375 8.45953125 7 8 C6.36578125 7.60941406 5.7315625 7.21882812 5.078125 6.81640625 C4.47484375 6.40261719 3.8715625 5.98882812 3.25 5.5625 C2.63640625 5.15128906 2.0228125 4.74007813 1.390625 4.31640625 C0.93171875 3.88199219 0.4728125 3.44757812 0 3 C0 2.01 0 1.02 0 0 Z " fill="#2F3C44" transform="translate(4,3)"/>
<path d="M0 0 C0.66 0.33 1.32 0.66 2 1 C0.9024777 3.99324263 0.32317108 4.84610901 -2.625 6.25 C-3.40875 6.4975 -4.1925 6.745 -5 7 C-3.75023244 3.34683329 -3.32901247 2.21934164 0 0 Z " fill="#7DABC6" transform="translate(21,8)"/>
</svg>
