<svg width="25" height="28" viewBox="0 0 25 28" fill="none" xmlns="http://www.w3.org/2000/svg">
<path d="M7.48633 4.5C7.50748 4.527 7.53613 4.58353 7.53613 4.66699C7.53616 6.21244 7.74803 7.70026 8.14258 9.09277H8.14355C8.1772 9.2174 8.14086 9.32102 8.09961 9.36914L5.8916 11.9365L5.48047 12.4131L5.7334 12.9893C7.25559 16.4663 9.71863 19.3288 12.7529 21.1357L13.4746 21.5654L14.0225 20.9287L16.207 18.3877C17.4098 18.8404 18.7045 19.087 20.0322 19.0928C20.0535 19.1189 20.084 19.1761 20.084 19.2617V23.333C20.084 23.416 20.0543 23.4718 20.0332 23.499C11.3165 23.4696 4.01578 15.1972 4.01562 4.66699C4.01562 4.58366 4.04429 4.52706 4.06543 4.5H7.48633Z" stroke="#89BCD9" stroke-width="2"/>
</svg>
